<svg xmlns="http://www.w3.org/2000/svg" width="24" height="24" viewBox="0 0 24 24" fill="none" stroke="currentColor" stroke-width="2" stroke-linecap="round" stroke-linejoin="round">
    <path d="M10.335 2.046c.928-1.55 3.404-1.55 4.332 0l2.362 3.94a.5.5 0 0 0 .433.254h4.72c1.786 0 2.535 2.253 1.07 3.324l-3.82 2.774a.5.5 0 0 0-.166.56l1.433 4.545c.563 1.786-1.395 3.323-2.943 2.361L12.92 16.92a.5.5 0 0 0-.582 0l-3.82 2.774c-1.548.962-3.506-.575-2.943-2.36l1.433-4.546a.5.5 0 0 0-.166-.56l-3.82-2.774c-1.464-1.07-.715-3.323 1.07-3.323h4.721a.5.5 0 0 0 .433-.254l2.36-3.94z" fill="#4A4A4A"/>
    <path d="M12.002 10.998c-1.74 0-3.23.95-3.99 2.502h7.98c-.76-1.552-2.25-2.502-3.99-2.502z" fill="#fff"/>
</svg> 